RobotoSerifTextWide-Regular 01h.ufo
<glyph name="exclam" format="2">
  <advance width="318"/>
  <unicode hex="0021"/>
  <outline>
    <contour>
      <point x="219" y="734" type="line"/>
      <point x="219" y="551"/>
      <point x="188" y="450"/>
      <point x="188" y="216" type="curve"/>
      <point x="130" y="216" type="line"/>
      <point x="130" y="450"/>
      <point x="100" y="550"/>
      <point x="100" y="734" type="curve"/>
    </contour>
    <component base="period" xOffset="35"/>
  </outline>
</glyph>
<glyph name="dollar" format="2">
  <advance width="658"/>
  <unicode hex="0024"/>
  <outline>
    <contour>
      <point x="301" y="790" type="line"/>
      <point x="301" y="674" type="line"/>
      <point x="301" y="658" type="line"/>
      <point x="301" y="48" type="line"/>
      <point x="301" y="37" type="line"/>
      <point x="301" y="-120" type="line"/>
      <point x="367" y="-120" type="line"/>
      <point x="367" y="39" type="line"/>
      <point x="367" y="52" type="line"/>
      <point x="367" y="660" type="line"/>
      <point x="367" y="672" type="line"/>
      <point x="367" y="790" type="line"/>
    </contour>
    <contour>
      <point x="337" y="71" type="curve" smooth="yes"/>
      <point x="239" y="71"/>
      <point x="150" y="102"/>
      <point x="107" y="155" type="curve"/>
      <point x="97" y="143"/>
      <point x="123" y="99"/>
      <point x="156" y="98" type="curve"/>
      <point x="156" y="218" type="line"/>
      <point x="53" y="218" type="line"/>
      <point x="53" y="91" type="line"/>
      <point x="107" y="51"/>
      <point x="210" y="12"/>
      <point x="341" y="12" type="curve" smooth="yes"/>
      <point x="492" y="12"/>
      <point x="608" y="78"/>
      <point x="608" y="210" type="curve" smooth="yes"/>
      <point x="608" y="332"/>
      <point x="482" y="379"/>
      <point x="369" y="406" type="curve" smooth="yes"/>
      <point x="264" y="428"/>
      <point x="166" y="447"/>
      <point x="166" y="531" type="curve" smooth="yes"/>
      <point x="166" y="602"/>
      <point x="231" y="640"/>
      <point x="353" y="640" type="curve" smooth="yes"/>
      <point x="438" y="640"/>
      <point x="500" y="612"/>
      <point x="533" y="575" type="curve"/>
      <point x="540" y="597"/>
      <point x="514" y="621"/>
      <point x="485" y="623" type="curve"/>
      <point x="485" y="522" type="line"/>
      <point x="583" y="522" type="line"/>
      <point x="583" y="635" type="line"/>
      <point x="544" y="665"/>
      <point x="459" y="698"/>
      <point x="347" y="698" type="curve" smooth="yes"/>
      <point x="188" y="698"/>
      <point x="83" y="634"/>
      <point x="83" y="520" type="curve" smooth="yes"/>
      <point x="83" y="391"/>
      <point x="203" y="358"/>
      <point x="313" y="331" type="curve" smooth="yes"/>
      <point x="418" y="308"/>
      <point x="520" y="287"/>
      <point x="520" y="191" type="curve" smooth="yes"/>
      <point x="520" y="102"/>
      <point x="450" y="71"/>
    </contour>
  </outline>
</glyph>
<glyph name="quotesingle" format="2">
  <advance width="286"/>
  <unicode hex="0027"/>
  <outline>
    <contour>
      <point x="193" y="710" type="line"/>
      <point x="193" y="635"/>
      <point x="171" y="600"/>
      <point x="171" y="473" type="curve"/>
      <point x="115" y="473" type="line"/>
      <point x="115" y="600"/>
      <point x="92" y="634"/>
      <point x="92" y="710" type="curve"/>
    </contour>
  </outline>
</glyph>
<glyph name="parenleft" format="2">
  <advance width="382"/>
  <unicode hex="0028"/>
  <outline>
    <contour>
      <point x="157" y="310" type="curve" smooth="yes"/>
      <point x="157" y="111"/>
      <point x="270" y="-48"/>
      <point x="373" y="-127" type="curve"/>
      <point x="373" y="-130" type="line"/>
      <point x="299" y="-130" type="line"/>
      <point x="173" y="-50"/>
      <point x="61" y="118"/>
      <point x="61" y="310" type="curve" smooth="yes"/>
      <point x="61" y="502"/>
      <point x="173" y="670"/>
      <point x="299" y="750" type="curve"/>
      <point x="373" y="750" type="line"/>
      <point x="373" y="747" type="line"/>
      <point x="270" y="668"/>
      <point x="157" y="509"/>
    </contour>
  </outline>
</glyph>
<glyph name="comma" format="2">
  <advance width="314"/>
  <unicode hex="002C"/>
  <outline>
    <contour>
      <point x="126" y="-166" type="line"/>
      <point x="205" y="-106"/>
      <point x="243" y="-38"/>
      <point x="243" y="38" type="curve" smooth="yes"/>
      <point x="243" y="96"/>
      <point x="208" y="124"/>
      <point x="160" y="124" type="curve" smooth="yes"/>
      <point x="117" y="124"/>
      <point x="87" y="97"/>
      <point x="87" y="58" type="curve" smooth="yes"/>
      <point x="87" y="19"/>
      <point x="120" y="-8"/>
      <point x="168" y="-8" type="curve" smooth="yes"/>
      <point x="190" y="-8"/>
      <point x="204" y="-5"/>
      <point x="214" y="8" type="curve"/>
      <point x="201" y="17"/>
      <point x="193" y="18"/>
      <point x="188" y="9" type="curve"/>
      <point x="186" y="-35"/>
      <point x="126" y="-88"/>
      <point x="55" y="-133" type="curve"/>
    </contour>
  </outline>
</glyph>
<glyph name="hyphen" format="2">
  <advance width="515"/>
  <unicode hex="002D"/>
  <outline>
    <contour>
      <point x="92" y="335" type="line"/>
      <point x="92" y="255" type="line"/>
      <point x="423" y="255" type="line"/>
      <point x="423" y="335" type="line"/>
    </contour>
  </outline>
</glyph>
<glyph name="period" format="2">
  <advance width="290"/>
  <unicode hex="002E"/>
  <outline>
    <contour>
      <point x="220" y="59" type="curve" smooth="yes"/>
      <point x="220" y="99"/>
      <point x="189" y="126"/>
      <point x="145" y="126" type="curve" smooth="yes"/>
      <point x="101" y="126"/>
      <point x="70" y="99"/>
      <point x="70" y="59" type="curve" smooth="yes"/>
      <point x="70" y="21"/>
      <point x="101" y="-6"/>
      <point x="145" y="-6" type="curve" smooth="yes"/>
      <point x="189" y="-6"/>
      <point x="220" y="21"/>
    </contour>
  </outline>
</glyph>
<glyph name="two" format="2">
  <advance width="658"/>
  <unicode hex="0032"/>
  <outline>
    <contour>
      <point x="382" y="76" type="line" smooth="yes"/>
      <point x="479" y="76"/>
      <point x="517" y="83"/>
      <point x="522" y="117" type="curve" smooth="yes"/>
      <point x="533" y="193" type="line"/>
      <point x="595" y="193" type="line"/>
      <point x="595" y="0" type="line"/>
      <point x="55" y="0" type="line"/>
      <point x="55" y="95" type="line"/>
      <point x="263" y="200"/>
      <point x="465" y="309"/>
      <point x="465" y="446" type="curve" smooth="yes"/>
      <point x="465" y="525"/>
      <point x="410" y="557"/>
      <point x="320" y="557" type="curve" smooth="yes"/>
      <point x="231" y="557"/>
      <point x="164" y="519"/>
      <point x="124" y="471" type="curve"/>
      <point x="129" y="508"/>
      <point x="143" y="532"/>
      <point x="171" y="535" type="curve"/>
      <point x="171" y="428" type="line"/>
      <point x="75" y="428" type="line"/>
      <point x="75" y="521" type="line"/>
      <point x="111" y="567"/>
      <point x="204" y="618"/>
      <point x="320" y="618" type="curve" smooth="yes"/>
      <point x="473" y="618"/>
      <point x="566" y="557"/>
      <point x="566" y="442" type="curve" smooth="yes"/>
      <point x="566" y="292"/>
      <point x="311" y="150"/>
      <point x="93" y="50" type="curve"/>
      <point x="89" y="52"/>
      <point x="84" y="70"/>
      <point x="88" y="76" type="curve"/>
    </contour>
  </outline>
</glyph>
<glyph name="three" format="2">
  <advance width="658"/>
  <unicode hex="0033"/>
  <outline>
    <contour>
      <point x="321" y="-28" type="curve" smooth="yes"/>
      <point x="432" y="-28"/>
      <point x="506" y="22"/>
      <point x="506" y="113" type="curve" smooth="yes"/>
      <point x="506" y="198"/>
      <point x="447" y="254"/>
      <point x="297" y="254" type="curve" smooth="yes"/>
      <point x="212" y="254" type="line"/>
      <point x="212" y="313" type="line"/>
      <point x="283" y="313" type="line" smooth="yes"/>
      <point x="402" y="313"/>
      <point x="476" y="355"/>
      <point x="476" y="442" type="curve" smooth="yes"/>
      <point x="476" y="524"/>
      <point x="408" y="557"/>
      <point x="321" y="557" type="curve" smooth="yes"/>
      <point x="229" y="557"/>
      <point x="169" y="521"/>
      <point x="133" y="474" type="curve"/>
      <point x="137" y="511"/>
      <point x="154" y="534"/>
      <point x="179" y="538" type="curve"/>
      <point x="179" y="432" type="line"/>
      <point x="83" y="432" type="line"/>
      <point x="83" y="524" type="line"/>
      <point x="118" y="569"/>
      <point x="204" y="618"/>
      <point x="323" y="618" type="curve" smooth="yes"/>
      <point x="469" y="618"/>
      <point x="574" y="554"/>
      <point x="574" y="454" type="curve" smooth="yes"/>
      <point x="574" y="351"/>
      <point x="450" y="281"/>
      <point x="292" y="281" type="curve"/>
      <point x="313" y="291" type="line"/>
      <point x="533" y="291"/>
      <point x="607" y="212"/>
      <point x="607" y="112" type="curve" smooth="yes"/>
      <point x="607" y="-8"/>
      <point x="487" y="-90"/>
      <point x="321" y="-90" type="curve" smooth="yes"/>
      <point x="171" y="-90"/>
      <point x="73" y="-22"/>
      <point x="28" y="70" type="curve"/>
      <point x="80" y="112" type="line"/>
      <point x="116" y="45"/>
      <point x="189" y="-28"/>
    </contour>
  </outline>
</glyph>
<glyph name="six" format="2">
  <advance width="658"/>
  <unicode hex="0036"/>
  <outline>
    <contour>
      <point x="528" y="678" type="line"/>
      <point x="302" y="645"/>
      <point x="147" y="496"/>
      <point x="147" y="294" type="curve" smooth="yes"/>
      <point x="147" y="121"/>
      <point x="227" y="52"/>
      <point x="342" y="52" type="curve" smooth="yes"/>
      <point x="446" y="52"/>
      <point x="510" y="122"/>
      <point x="510" y="229" type="curve" smooth="yes"/>
      <point x="510" y="327"/>
      <point x="459" y="392"/>
      <point x="359" y="392" type="curve" smooth="yes"/>
      <point x="254" y="392"/>
      <point x="178" y="328"/>
      <point x="130" y="245" type="curve"/>
      <point x="117" y="298" type="line"/>
      <point x="153" y="374"/>
      <point x="247" y="453"/>
      <point x="371" y="453" type="curve" smooth="yes"/>
      <point x="511" y="453"/>
      <point x="613" y="369"/>
      <point x="613" y="229" type="curve" smooth="yes"/>
      <point x="613" y="90"/>
      <point x="498" y="-10"/>
      <point x="342" y="-10" type="curve" smooth="yes"/>
      <point x="175" y="-10"/>
      <point x="46" y="92"/>
      <point x="46" y="295" type="curve" smooth="yes"/>
      <point x="46" y="513"/>
      <point x="236" y="701"/>
      <point x="517" y="740" type="curve"/>
    </contour>
  </outline>
</glyph>
<glyph name="seven" format="2">
  <advance width="658"/>
  <unicode hex="0037"/>
  <outline>
    <contour>
      <point x="284" y="528" type="line" smooth="yes"/>
      <point x="183" y="528"/>
      <point x="142" y="521"/>
      <point x="137" y="485" type="curve" smooth="yes"/>
      <point x="127" y="396" type="line"/>
      <point x="70" y="396" type="line"/>
      <point x="70" y="609" type="line"/>
      <point x="625" y="609" type="line"/>
      <point x="625" y="530" type="line"/>
      <point x="486" y="362"/>
      <point x="362" y="230"/>
      <point x="329" y="-77" type="curve"/>
      <point x="225" y="-77" type="line"/>
      <point x="262" y="224"/>
      <point x="489" y="479"/>
      <point x="565" y="543" type="curve"/>
      <point x="578" y="528" type="line"/>
    </contour>
  </outline>
</glyph>
<glyph name="eight" format="2">
  <advance width="658"/>
  <unicode hex="0038"/>
  <outline>
    <contour>
      <point x="329" y="52" type="curve" smooth="yes"/>
      <point x="223" y="52"/>
      <point x="151" y="110"/>
      <point x="151" y="198" type="curve" smooth="yes"/>
      <point x="151" y="292"/>
      <point x="223" y="346"/>
      <point x="329" y="346" type="curve" smooth="yes"/>
      <point x="435" y="346"/>
      <point x="507" y="292"/>
      <point x="507" y="198" type="curve" smooth="yes"/>
      <point x="507" y="110"/>
      <point x="435" y="52"/>
    </contour>
    <contour>
      <point x="329" y="-10" type="curve" smooth="yes"/>
      <point x="491" y="-10"/>
      <point x="612" y="74"/>
      <point x="612" y="193" type="curve" smooth="yes"/>
      <point x="612" y="314"/>
      <point x="486" y="388"/>
      <point x="329" y="388" type="curve" smooth="yes"/>
      <point x="172" y="388"/>
      <point x="46" y="314"/>
      <point x="46" y="193" type="curve" smooth="yes"/>
      <point x="46" y="74"/>
      <point x="167" y="-10"/>
    </contour>
    <contour>
      <point x="329" y="406" type="curve" smooth="yes"/>
      <point x="245" y="406"/>
      <point x="187" y="455"/>
      <point x="187" y="532" type="curve" smooth="yes"/>
      <point x="187" y="609"/>
      <point x="244" y="658"/>
      <point x="329" y="658" type="curve" smooth="yes"/>
      <point x="414" y="658"/>
      <point x="471" y="609"/>
      <point x="471" y="532" type="curve" smooth="yes"/>
      <point x="471" y="455"/>
      <point x="413" y="406"/>
    </contour>
    <contour>
      <point x="329" y="368" type="curve" smooth="yes"/>
      <point x="466" y="368"/>
      <point x="568" y="435"/>
      <point x="568" y="543" type="curve" smooth="yes"/>
      <point x="568" y="647"/>
      <point x="466" y="720"/>
      <point x="329" y="720" type="curve" smooth="yes"/>
      <point x="192" y="720"/>
      <point x="90" y="647"/>
      <point x="90" y="543" type="curve" smooth="yes"/>
      <point x="90" y="435"/>
      <point x="192" y="368"/>
    </contour>
  </outline>
</glyph>
<glyph name="C" format="2">
  <advance width="837"/>
  <unicode hex="0043"/>
  <outline>
    <contour>
      <point x="443" y="656" type="curve" smooth="yes"/>
      <point x="582" y="656"/>
      <point x="663" y="592"/>
      <point x="701" y="495" type="curve"/>
      <point x="774" y="495" type="line"/>
      <point x="774" y="710" type="line"/>
      <point x="709" y="710" type="line"/>
      <point x="691" y="551" type="line"/>
      <point x="731" y="550" type="line"/>
      <point x="691" y="655"/>
      <point x="598" y="720"/>
      <point x="442" y="720" type="curve" smooth="yes"/>
      <point x="230" y="720"/>
      <point x="55" y="569"/>
      <point x="55" y="355" type="curve" smooth="yes"/>
      <point x="55" y="138"/>
      <point x="219" y="-10"/>
      <point x="451" y="-10" type="curve" smooth="yes"/>
      <point x="628" y="-10"/>
      <point x="748" y="88"/>
      <point x="791" y="233" type="curve"/>
      <point x="727" y="257" type="line"/>
      <point x="693" y="140"/>
      <point x="601" y="54.0"/>
      <point x="459" y="54" type="curve" smooth="yes"/>
      <point x="277" y="54"/>
      <point x="162" y="173"/>
      <point x="162" y="355" type="curve" smooth="yes"/>
      <point x="162" y="537"/>
      <point x="288" y="656"/>
    </contour>
  </outline>
</glyph>
<glyph name="M" format="2">
  <advance width="1109"/>
  <unicode hex="004D"/>
  <anchor x="540" y="0.0" name="bottom"/>
  <outline>
    <contour>
      <point x="53" y="0" type="line"/>
      <point x="337" y="0" type="line"/>
      <point x="337" y="49" type="line"/>
      <point x="333" y="49" type="line" smooth="yes"/>
      <point x="294" y="49"/>
      <point x="236" y="52"/>
      <point x="236" y="59" type="curve" smooth="yes"/>
      <point x="236" y="676" type="line"/>
      <point x="225" y="687" type="line"/>
      <point x="508" y="-2" type="line"/>
      <point x="572" y="-2" type="line"/>
      <point x="855" y="686" type="line"/>
      <point x="844" y="688" type="line"/>
      <point x="844" y="59" type="line" smooth="yes"/>
      <point x="844" y="52"/>
      <point x="797" y="49"/>
      <point x="754" y="49" type="curve" smooth="yes"/>
      <point x="743" y="49" type="line"/>
      <point x="743" y="0" type="line"/>
      <point x="1056" y="0" type="line"/>
      <point x="1056" y="49" type="line"/>
      <point x="1043" y="49" type="line" smooth="yes"/>
      <point x="986" y="49"/>
      <point x="943" y="56"/>
      <point x="943" y="85" type="curve" smooth="yes"/>
      <point x="943" y="625" type="line" smooth="yes"/>
      <point x="943" y="654"/>
      <point x="986" y="661"/>
      <point x="1043" y="661" type="curve" smooth="yes"/>
      <point x="1056" y="661" type="line"/>
      <point x="1056" y="710" type="line"/>
      <point x="793" y="710" type="line"/>
      <point x="544" y="105" type="line"/>
      <point x="567" y="97" type="line"/>
      <point x="322" y="710" type="line"/>
      <point x="53" y="710" type="line"/>
      <point x="53" y="661" type="line"/>
      <point x="66" y="661" type="line" smooth="yes"/>
      <point x="124" y="661"/>
      <point x="166" y="654"/>
      <point x="166" y="625" type="curve" smooth="yes"/>
      <point x="166" y="85" type="line" smooth="yes"/>
      <point x="166" y="56"/>
      <point x="124" y="49"/>
      <point x="66" y="49" type="curve"/>
      <point x="53" y="49" type="line"/>
    </contour>
  </outline>
</glyph>
<glyph name="P" format="2">
  <advance width="749"/>
  <unicode hex="0050"/>
  <outline>
    <contour>
      <point x="53" y="0" type="line"/>
      <point x="387" y="0" type="line"/>
      <point x="387" y="49" type="line"/>
      <point x="356" y="49" type="line" smooth="yes"/>
      <point x="316" y="49"/>
      <point x="265" y="52"/>
      <point x="265" y="59" type="curve"/>
      <point x="265" y="649" type="line"/>
      <point x="407" y="649" type="line" smooth="yes"/>
      <point x="536.2673267326733" y="649"/>
      <point x="599.0" y="594.0"/>
      <point x="599" y="499" type="curve" smooth="yes"/>
      <point x="599.0" y="404.0"/>
      <point x="536.1730769230769" y="341"/>
      <point x="401" y="341" type="curve" smooth="yes"/>
      <point x="245" y="341" type="line"/>
      <point x="245" y="282" type="line"/>
      <point x="403" y="282" type="line" smooth="yes"/>
      <point x="591.75" y="282"/>
      <point x="705.0" y="372.0"/>
      <point x="705" y="501" type="curve" smooth="yes"/>
      <point x="705.0" y="628.0"/>
      <point x="597.6274509803922" y="710"/>
      <point x="409" y="710" type="curve" smooth="yes"/>
      <point x="53" y="710" type="line"/>
      <point x="53" y="661" type="line"/>
      <point x="66" y="661" type="line" smooth="yes"/>
      <point x="124" y="661"/>
      <point x="166" y="654"/>
      <point x="166" y="625" type="curve" smooth="yes"/>
      <point x="166" y="85" type="line" smooth="yes"/>
      <point x="166" y="56"/>
      <point x="124" y="49"/>
      <point x="66" y="49" type="curve" smooth="yes"/>
      <point x="53" y="49" type="line"/>
    </contour>
  </outline>
</glyph>
<glyph name="S" format="2">
  <advance width="731"/>
  <unicode hex="0053"/>
  <anchor x="403" y="741.0" name="top"/>
  <anchor x="403" y="0.0" name="bottom"/>
  <outline>
    <contour>
      <point x="404" y="52" type="curve" smooth="yes"/>
      <point x="272.0" y="52.0"/>
      <point x="165.77136259419754" y="122.91523623189856"/>
      <point x="128" y="225" type="curve"/>
      <point x="57" y="225" type="line"/>
      <point x="57" y="0" type="line"/>
      <point x="121" y="0" type="line"/>
      <point x="137" y="170" type="line"/>
      <point x="124.7621789157698" y="176.1189105421151"/>
      <point x="109.0" y="178.0"/>
      <point x="90" y="178" type="curve"/>
      <point x="142.9819323603276" y="42.48851915531594"/>
      <point x="266.0" y="-10.0"/>
      <point x="408" y="-10" type="curve" smooth="yes"/>
      <point x="557" y="-10.0"/>
      <point x="670.0" y="65.0"/>
      <point x="670" y="197" type="curve" smooth="yes"/>
      <point x="670" y="339"/>
      <point x="550" y="374"/>
      <point x="406" y="410" type="curve" smooth="yes"/>
      <point x="288" y="439"/>
      <point x="179" y="453"/>
      <point x="179" y="547" type="curve" smooth="yes"/>
      <point x="179" y="616"/>
      <point x="239" y="659"/>
      <point x="341" y="659" type="curve" smooth="yes"/>
      <point x="441.93896713615027" y="659.0"/>
      <point x="518.0869238502369" y="604.0235741697453"/>
      <point x="556" y="520" type="curve"/>
      <point x="625" y="520" type="line"/>
      <point x="625" y="710" type="line"/>
      <point x="564" y="710" type="line"/>
      <point x="547" y="565" type="line"/>
      <point x="560.217977611068" y="560.2792937103328"/>
      <point x="582.5626064476472" y="560.2947797184037"/>
      <point x="587" y="566" type="curve"/>
      <point x="535.8794232114644" y="682.5549150778612"/>
      <point x="442.0" y="720.0"/>
      <point x="332" y="720" type="curve" smooth="yes"/>
      <point x="192.0" y="720.0"/>
      <point x="89" y="648"/>
      <point x="89" y="533" type="curve" smooth="yes"/>
      <point x="89.0" y="394"/>
      <point x="219.10610684403494" y="357.97367892240993"/>
      <point x="348" y="326" type="curve" smooth="yes"/>
      <point x="478.8576217417592" y="294.0347794218603"/>
      <point x="575.0" y="276.97402597402595"/>
      <point x="575" y="175" type="curve" smooth="yes"/>
      <point x="575.0" y="89.925"/>
      <point x="509" y="52.0"/>
    </contour>
  </outline>
</glyph>
<glyph name="U" format="2">
  <advance width="944"/>
  <unicode hex="0055"/>
  <anchor x="476.0" y="741.0" name="top"/>
  <anchor x="541.0" y="0.0" name="right"/>
  <anchor x="476.0" y="0.0" name="bottom"/>
  <outline>
    <contour>
      <point x="263" y="259" type="curve" smooth="yes"/>
      <point x="263" y="651" type="line" smooth="yes"/>
      <point x="263" y="658"/>
      <point x="320" y="661"/>
      <point x="365" y="661" type="curve" smooth="yes"/>
      <point x="376" y="661" type="line"/>
      <point x="376" y="710" type="line"/>
      <point x="51" y="710" type="line"/>
      <point x="51" y="661" type="line"/>
      <point x="64" y="661" type="line" smooth="yes"/>
      <point x="121" y="661"/>
      <point x="164" y="654"/>
      <point x="164" y="625" type="curve" smooth="yes"/>
      <point x="164" y="259" type="line" smooth="yes"/>
      <point x="164" y="68"/>
      <point x="297" y="-10"/>
      <point x="479" y="-10" type="curve" smooth="yes"/>
      <point x="646" y="-10"/>
      <point x="780" y="68"/>
      <point x="780" y="258" type="curve" smooth="yes"/>
      <point x="780" y="616" type="line" smooth="yes"/>
      <point x="780" y="650"/>
      <point x="822" y="661"/>
      <point x="880" y="661" type="curve" smooth="yes"/>
      <point x="893" y="661" type="line"/>
      <point x="893" y="710" type="line"/>
      <point x="597" y="710" type="line"/>
      <point x="597" y="661" type="line"/>
      <point x="608" y="661" type="line" smooth="yes"/>
      <point x="652" y="661"/>
      <point x="710" y="653"/>
      <point x="710" y="639" type="curve" smooth="yes"/>
      <point x="710" y="259" type="line" smooth="yes"/>
      <point x="710" y="106.47474747474746"/>
      <point x="616.0" y="59.0"/>
      <point x="491" y="59" type="curve" smooth="yes"/>
      <point x="359.0" y="59.0"/>
      <point x="263" y="108.49494949494951"/>
    </contour>
  </outline>
</glyph>
<glyph name="V" format="2">
  <advance width="818"/>
  <unicode hex="0056"/>
  <outline>
    <contour>
      <point x="439" y="40" type="line"/>
      <point x="188" y="651" type="line"/>
      <point x="188.0" y="658.0"/>
      <point x="240.53608247422682" y="661"/>
      <point x="286" y="661" type="curve" smooth="yes"/>
      <point x="306" y="661" type="line"/>
      <point x="306" y="710" type="line"/>
      <point x="10" y="710" type="line"/>
      <point x="10" y="661" type="line"/>
      <point x="16" y="661" type="line"/>
      <point x="55" y="661"/>
      <point x="81" y="659"/>
      <point x="92" y="633" type="curve" smooth="yes"/>
      <point x="355" y="0" type="line"/>
      <point x="466" y="0" type="line"/>
      <point x="720" y="618" type="line" smooth="yes"/>
      <point x="735" y="655"/>
      <point x="758" y="661"/>
      <point x="802" y="661" type="curve"/>
      <point x="808" y="661" type="line"/>
      <point x="808" y="710" type="line"/>
      <point x="542" y="710" type="line"/>
      <point x="542" y="661" type="line"/>
      <point x="559" y="661" type="line" smooth="yes"/>
      <point x="604" y="661"/>
      <point x="657" y="654"/>
      <point x="657" y="643" type="curve"/>
      <point x="414" y="45" type="line"/>
    </contour>
  </outline>
</glyph>
<glyph name="a" format="2">
  <advance width="632"/>
  <unicode hex="0061"/>
  <anchor x="291" y="553.0" name="top"/>
  <anchor x="472" y="-10.0" name="right"/>
  <anchor x="324" y="0.0" name="bottom"/>
  <outline>
    <contour>
      <point x="450" y="313" type="line"/>
      <point x="174.59129610781645" y="284.8560448577331"/>
      <point x="63.0" y="235.39153439153438"/>
      <point x="63" y="120" type="curve" smooth="yes"/>
      <point x="63.0" y="39.4776119402985"/>
      <point x="129" y="-10.0"/>
      <point x="229" y="-10" type="curve" smooth="yes"/>
      <point x="328.91666666666663" y="-10.0"/>
      <point x="405.91411545400456" y="39.840799378154856"/>
      <point x="447" y="116" type="curve"/>
      <point x="447" y="187" type="line"/>
      <point x="405.92098527005606" y="100.83426178597122"/>
      <point x="339.9015544041451" y="47.0"/>
      <point x="252" y="47" type="curve" smooth="yes"/>
      <point x="196.375" y="47.0"/>
      <point x="163.0" y="75.48101265822785"/>
      <point x="163" y="122" type="curve" smooth="yes"/>
      <point x="163.0" y="203.3235294117647"/>
      <point x="230.48419239657494" y="240.8539818363673"/>
      <point x="450" y="262" type="curve"/>
    </contour>
    <contour>
      <point x="432" y="0" type="line"/>
      <point x="614" y="0" type="line"/>
      <point x="614" y="47" type="line"/>
      <point x="614" y="47" type="line"/>
      <point x="557" y="47"/>
      <point x="516" y="54"/>
      <point x="516" y="82" type="curve" smooth="yes"/>
      <point x="516" y="358" type="line" smooth="yes"/>
      <point x="516" y="477.0"/>
      <point x="414.488038277512" y="518.0"/>
      <point x="308" y="518" type="curve" smooth="yes"/>
      <point x="206.5144230769231" y="518.0"/>
      <point x="132.89376301464404" y="481.92500918680753"/>
      <point x="99" y="458" type="curve"/>
      <point x="99" y="354" type="line"/>
      <point x="194" y="354" type="line"/>
      <point x="194" y="457" type="line"/>
      <point x="164" y="446"/>
      <point x="141" y="426"/>
      <point x="146" y="394" type="curve"/>
      <point x="175.92224397115913" y="428.90928463301896"/>
      <point x="224.5032258064516" y="460.0"/>
      <point x="302" y="460" type="curve" smooth="yes"/>
      <point x="378.3636363636364" y="460.0"/>
      <point x="422" y="433.0"/>
      <point x="422" y="351" type="curve" smooth="yes"/>
      <point x="422" y="114" type="line"/>
      <point x="432" y="111" type="line"/>
    </contour>
  </outline>
</glyph>
<glyph name="o" format="2">
  <advance width="702"/>
  <unicode hex="006F"/>
  <guideline x="351" y="529" angle="90" identifier="82CGFySuDL"/>
  <anchor x="351" y="551.0" name="top"/>
  <anchor x="471" y="0.0" name="right"/>
  <anchor x="351" y="0.0" name="bottom"/>
  <outline>
    <contour>
      <point x="351.0" y="-10.0" type="curve" smooth="yes"/>
      <point x="521" y="-10.0"/>
      <point x="648.0" y="97.0"/>
      <point x="648" y="254" type="curve" smooth="yes"/>
      <point x="648.0" y="409.0"/>
      <point x="521" y="518.0"/>
      <point x="351.0" y="518.0" type="curve" smooth="yes"/>
      <point x="181" y="518.0"/>
      <point x="54.0" y="410.0"/>
      <point x="54" y="254" type="curve" smooth="yes"/>
      <point x="54.0" y="97.0"/>
      <point x="181" y="-10.0"/>
    </contour>
    <contour>
      <point x="351.0" y="49.0" type="curve" smooth="yes"/>
      <point x="231" y="49.0"/>
      <point x="154.0" y="129.0"/>
      <point x="154" y="254" type="curve" smooth="yes"/>
      <point x="154.0" y="377.0"/>
      <point x="231" y="459.0"/>
      <point x="351.0" y="459.0" type="curve" smooth="yes"/>
      <point x="470" y="459.0"/>
      <point x="548.0" y="377.0"/>
      <point x="548" y="254" type="curve" smooth="yes"/>
      <point x="548.0" y="128.0"/>
      <point x="470" y="49.0"/>
    </contour>
  </outline>
</glyph>
<glyph name="q" format="2">
  <advance width="739"/>
  <unicode hex="0071"/>
  <outline>
    <contour>
      <point x="409" y="-223" type="line"/>
      <point x="723" y="-223" type="line"/>
      <point x="723" y="-176" type="line"/>
      <point x="721" y="-176" type="line"/>
      <point x="664" y="-176"/>
      <point x="624" y="-170"/>
      <point x="624" y="-141" type="curve" smooth="yes"/>
      <point x="624" y="511" type="line"/>
      <point x="558" y="511" type="line"/>
      <point x="537" y="403" type="line"/>
      <point x="529" y="386" type="line"/>
      <point x="529" y="-167" type="line" smooth="yes"/>
      <point x="529" y="-174"/>
      <point x="473" y="-176"/>
      <point x="443" y="-176" type="curve" smooth="yes"/>
      <point x="409" y="-176" type="line"/>
    </contour>
    <contour>
      <point x="332" y="518" type="curve" smooth="yes"/>
      <point x="165" y="518"/>
      <point x="54" y="409"/>
      <point x="54" y="250" type="curve" smooth="yes"/>
      <point x="54" y="94"/>
      <point x="160" y="-10"/>
      <point x="325" y="-10" type="curve" smooth="yes"/>
      <point x="422" y="-10"/>
      <point x="500" y="42"/>
      <point x="546" y="113" type="curve"/>
      <point x="546" y="199" type="line"/>
      <point x="492" y="101"/>
      <point x="428" y="50"/>
      <point x="332" y="50" type="curve" smooth="yes"/>
      <point x="217" y="50"/>
      <point x="154" y="127"/>
      <point x="154" y="250" type="curve" smooth="yes"/>
      <point x="154" y="375"/>
      <point x="217" y="458"/>
      <point x="335" y="458" type="curve" smooth="yes"/>
      <point x="425" y="458"/>
      <point x="500" y="411"/>
      <point x="546" y="318" type="curve"/>
      <point x="546" y="408" type="line"/>
      <point x="501" y="474"/>
      <point x="430" y="518"/>
    </contour>
  </outline>
</glyph>
<glyph name="Hbar" format="2">
  <advance width="976"/>
  <unicode hex="0126"/>
  <outline>
    <contour>
      <point x="53" y="549" type="line"/>
      <point x="53" y="495" type="line"/>
      <point x="916" y="495" type="line"/>
      <point x="916" y="549" type="line"/>
    </contour>
    <contour>
      <point x="232" y="395" type="line"/>
      <point x="232" y="335" type="line"/>
      <point x="741" y="335" type="line"/>
      <point x="741" y="395" type="line"/>
    </contour>
    <contour>
      <point x="53" y="0" type="line"/>
      <point x="378" y="0" type="line"/>
      <point x="378" y="49" type="line"/>
      <point x="367" y="49" type="line" smooth="yes"/>
      <point x="322" y="49"/>
      <point x="265" y="52"/>
      <point x="265" y="59" type="curve" smooth="yes"/>
      <point x="265" y="651" type="line" smooth="yes"/>
      <point x="265" y="658"/>
      <point x="322" y="661"/>
      <point x="367" y="661" type="curve" smooth="yes"/>
      <point x="378" y="661" type="line"/>
      <point x="378" y="710" type="line"/>
      <point x="53" y="710" type="line"/>
      <point x="53" y="661" type="line"/>
      <point x="66" y="661" type="line" smooth="yes"/>
      <point x="124" y="661"/>
      <point x="166" y="654"/>
      <point x="166" y="625" type="curve" smooth="yes"/>
      <point x="166" y="85" type="line" smooth="yes"/>
      <point x="166" y="56"/>
      <point x="124" y="49"/>
      <point x="66" y="49" type="curve" smooth="yes"/>
      <point x="53" y="49" type="line"/>
    </contour>
    <contour>
      <point x="591" y="0" type="line"/>
      <point x="916" y="0" type="line"/>
      <point x="916" y="49" type="line"/>
      <point x="903" y="49" type="line" smooth="yes"/>
      <point x="845" y="49"/>
      <point x="803" y="56"/>
      <point x="803" y="85" type="curve" smooth="yes"/>
      <point x="803" y="625" type="line" smooth="yes"/>
      <point x="803" y="654"/>
      <point x="845" y="661"/>
      <point x="903" y="661" type="curve" smooth="yes"/>
      <point x="916" y="661" type="line"/>
      <point x="916" y="710" type="line"/>
      <point x="591" y="710" type="line"/>
      <point x="591" y="661" type="line"/>
      <point x="601" y="661" type="line" smooth="yes"/>
      <point x="646" y="661"/>
      <point x="704" y="658"/>
      <point x="704" y="651" type="curve" smooth="yes"/>
      <point x="704" y="59" type="line" smooth="yes"/>
      <point x="704" y="52"/>
      <point x="646" y="49"/>
      <point x="601" y="49" type="curve" smooth="yes"/>
      <point x="591" y="49" type="line"/>
    </contour>
  </outline>
</glyph>
<glyph name="fi.alt" format="2">
  <advance width="784"/>
  <outline>
    <contour>
      <point x="44" y="508" type="line"/>
      <point x="44" y="450" type="line"/>
      <point x="554" y="450" type="line"/>
      <point x="554" y="508" type="line"/>
    </contour>
    <contour>
      <point x="561" y="56" type="line" smooth="yes"/>
      <point x="561" y="50"/>
      <point x="508" y="47"/>
      <point x="475" y="47" type="curve" smooth="yes"/>
      <point x="462" y="47" type="line"/>
      <point x="462" y="0" type="line"/>
      <point x="754" y="0" type="line"/>
      <point x="754" y="47" type="line"/>
      <point x="753" y="47" type="line" smooth="yes"/>
      <point x="697" y="47"/>
      <point x="656" y="54"/>
      <point x="656" y="82" type="curve" smooth="yes"/>
      <point x="656" y="508" type="line"/>
      <point x="461" y="508" type="line"/>
      <point x="461" y="450" type="line"/>
      <point x="474" y="450" type="line" smooth="yes"/>
      <point x="534" y="450"/>
      <point x="561" y="434"/>
      <point x="561" y="406" type="curve" smooth="yes"/>
    </contour>
    <contour>
      <point x="166" y="82" type="line" smooth="yes"/>
      <point x="166" y="54"/>
      <point x="127" y="47"/>
      <point x="63" y="47" type="curve" smooth="yes"/>
      <point x="50" y="47" type="line"/>
      <point x="50" y="0" type="line"/>
      <point x="379" y="0" type="line"/>
      <point x="379" y="47" type="line"/>
      <point x="364" y="47" type="line" smooth="yes"/>
      <point x="306" y="47"/>
      <point x="262" y="50"/>
      <point x="262" y="56" type="curve" smooth="yes"/>
      <point x="262" y="569" type="line" smooth="yes"/>
      <point x="262" y="656"/>
      <point x="312" y="694"/>
      <point x="430" y="694" type="curve" smooth="yes"/>
      <point x="510" y="694"/>
      <point x="562" y="673"/>
      <point x="596" y="647" type="curve"/>
      <point x="611" y="664"/>
      <point x="581" y="711"/>
      <point x="547" y="710" type="curve"/>
      <point x="547" y="612" type="line"/>
      <point x="638" y="612" type="line"/>
      <point x="638" y="712" type="line"/>
      <point x="618" y="723"/>
      <point x="546" y="752"/>
      <point x="430" y="752" type="curve" smooth="yes"/>
      <point x="267" y="752"/>
      <point x="166" y="687"/>
      <point x="166" y="568" type="curve" smooth="yes"/>
    </contour>
  </outline>
</glyph>
<glyph name="four.old" format="2">
  <advance width="658"/>
  <outline>
    <contour>
      <point x="41" y="54" type="line"/>
      <point x="639" y="54" type="line"/>
      <point x="639" y="126" type="line"/>
      <point x="74" y="126" type="line"/>
      <point x="84" y="82" type="line"/>
      <point x="436" y="528" type="line"/>
      <point x="439" y="548" type="line"/>
      <point x="377" y="548" type="line"/>
      <point x="41" y="130" type="line"/>
    </contour>
    <contour>
      <point x="508" y="-136" type="line"/>
      <point x="508" y="548" type="line"/>
      <point x="408" y="548" type="line"/>
      <point x="408" y="515" type="line"/>
      <point x="408" y="-136" type="line"/>
    </contour>
  </outline>
</glyph>
<glyph name="zero.slashlin" format="2">
  <advance width="658"/>
  <outline>
    <contour>
      <point x="511" y="525" type="line"/>
      <point x="123" y="239" type="line"/>
      <point x="152" y="185" type="line"/>
      <point x="536" y="468" type="line"/>
    </contour>
    <contour>
      <point x="329" y="-10" type="curve" smooth="yes"/>
      <point x="502" y="-10"/>
      <point x="621" y="138"/>
      <point x="621" y="355" type="curve" smooth="yes"/>
      <point x="621" y="573"/>
      <point x="502" y="720"/>
      <point x="329" y="720" type="curve" smooth="yes"/>
      <point x="156" y="720"/>
      <point x="37" y="573"/>
      <point x="37" y="355" type="curve" smooth="yes"/>
      <point x="37" y="138"/>
      <point x="156" y="-10"/>
    </contour>
    <contour>
      <point x="329" y="52" type="curve" smooth="yes"/>
      <point x="209" y="52"/>
      <point x="140" y="166"/>
      <point x="140" y="355" type="curve" smooth="yes"/>
      <point x="140" y="544"/>
      <point x="209" y="658"/>
      <point x="329" y="658" type="curve" smooth="yes"/>
      <point x="448" y="658"/>
      <point x="518" y="544"/>
      <point x="518" y="355" type="curve" smooth="yes"/>
      <point x="518" y="166"/>
      <point x="448" y="52"/>
    </contour>
  </outline>
</glyph>
